<svg width="20" height="18" viewBox="0 0 20 18"  xmlns="http://www.w3.org/2000/svg">
<path d="M5.83329 4.83333V3.16667C5.83329 2.24619 6.57949 1.5 7.49996 1.5H16.6666C17.5871 1.5 18.3333 2.24619 18.3333 3.16667V10.6667C18.3333 11.5871 17.5871 12.3333 16.6666 12.3333H12.5M9.16663 5.25H15M11.6666 8.58333H15M4.65478 12.8215C5.30566 13.4724 6.36093 13.4724 7.0118 12.8215C7.32436 12.5089 7.74829 12.3333 8.19032 12.3333H8.33329C9.25377 12.3333 9.99996 13.0795 9.99996 14V14.8333C9.99996 15.7538 9.25377 16.5 8.33329 16.5H3.33329C2.41282 16.5 1.66663 15.7538 1.66663 14.8333V14C1.66663 13.0795 2.41282 12.3333 3.33329 12.3333H3.47627C3.9183 12.3333 4.34222 12.5089 4.65478 12.8215ZM7.49996 9C7.49996 9.92047 6.75377 10.6667 5.83329 10.6667C4.91282 10.6667 4.16663 9.92047 4.16663 9C4.16663 8.07953 4.91282 7.33333 5.83329 7.33333C6.75377 7.33333 7.49996 8.07953 7.49996 9Z" stroke="#202020" stroke-width="1.5" stroke-linecap="round"/>
</svg>
